<svg id="Icon_-_Instagram" data-name="Icon - Instagram" xmlns="http://www.w3.org/2000/svg" width="22" height="22" viewBox="0 0 22 22">
  <g id="グループ_1486" data-name="グループ 1486">
    <path id="パス_784" data-name="パス 784" d="M-102.268,186.479a3.9,3.9,0,0,1,3.9,3.9v8.894a3.9,3.9,0,0,1-3.9,3.9h-8.894a3.9,3.9,0,0,1-3.9-3.9v-8.894a3.9,3.9,0,0,1,3.9-3.9h8.894m0-2.654h-8.894a6.572,6.572,0,0,0-6.553,6.553v8.894a6.572,6.572,0,0,0,6.553,6.553h8.894a6.572,6.572,0,0,0,6.553-6.553v-8.894a6.572,6.572,0,0,0-6.553-6.553Z" transform="translate(117.715 -183.825)" fill="#333"/>
    <path id="パス_785" data-name="パス 785" d="M-83.311,191.825a1.4,1.4,0,0,0-1.4,1.4,1.4,1.4,0,0,0,1.4,1.4,1.4,1.4,0,0,0,1.4-1.4,1.4,1.4,0,0,0-1.4-1.4Z" transform="translate(100.162 -188.08)" fill="#333"/>
    <g id="グループ_1485" data-name="グループ 1485" transform="translate(5.149 5.149)">
      <path id="パス_786" data-name="パス 786" d="M-100.864,197.479a3.2,3.2,0,0,1,3.2,3.2,3.2,3.2,0,0,1-3.2,3.2,3.2,3.2,0,0,1-3.2-3.2,3.2,3.2,0,0,1,3.2-3.2m0-2.654a5.851,5.851,0,0,0-5.851,5.851,5.851,5.851,0,0,0,5.851,5.851,5.851,5.851,0,0,0,5.851-5.851,5.851,5.851,0,0,0-5.851-5.851Z" transform="translate(106.715 -194.825)" fill="#333"/>
    </g>
  </g>
</svg>
